<?xml version="1.0" standalone="no"?><!DOCTYPE svg PUBLIC "-//W3C//DTD SVG 1.1//EN" "http://www.w3.org/Graphics/SVG/1.1/DTD/svg11.dtd"><svg t="1622026060130" class="icon" viewBox="0 0 1024 1024" version="1.1" xmlns="http://www.w3.org/2000/svg" p-id="4571" xmlns:xlink="http://www.w3.org/1999/xlink" width="200" height="200"><defs><style type="text/css"></style></defs><path d="M907.1104 787.456L851.7632 272.2304c-6.8096-63.232-63.1808-111.36-130.5088-111.36H302.7456c-67.328 0-123.6992 48.128-130.5088 111.36L116.8896 787.456c-7.8336 72.96 52.8384 136.3456 130.5088 136.3456h529.2032c77.6704 0.0512 138.3424-63.3344 130.5088-136.3456zM512 528.3328c-100.9152 0-182.9888-82.1248-182.9888-182.9888 0-16.9472 13.7728-30.72 30.72-30.72s30.72 13.7728 30.72 30.72c0 67.0208 54.528 121.5488 121.5488 121.5488s121.6-54.528 121.6-121.5488c0-16.9472 13.7728-30.72 30.72-30.72s30.72 13.7728 30.72 30.72c-0.0512 100.864-82.1248 182.9888-183.04 182.9888z" fill="#FCCBBB" p-id="4572"></path><path d="M907.1104 741.376L851.7632 226.1504c-6.8096-63.232-63.1808-111.36-130.5088-111.36H302.7456c-67.328 0-123.6992 48.128-130.5088 111.36L116.8896 741.376c-7.8336 72.96 52.8384 136.3456 130.5088 136.3456h529.2032c77.6704 0.0512 138.3424-63.3344 130.5088-136.3456zM512 482.2528c-100.9152 0-182.9888-82.1248-182.9888-182.9888 0-16.9472 13.7728-30.72 30.72-30.72s30.72 13.7728 30.72 30.72c0 67.0208 54.528 121.5488 121.5488 121.5488s121.6-54.528 121.6-121.5488c0-16.9472 13.7728-30.72 30.72-30.72s30.72 13.7728 30.72 30.72c-0.0512 100.864-82.1248 182.9888-183.04 182.9888z" fill="#FF9065" p-id="4573"></path></svg>